<?xml version="1.0" standalone="no"?>
<!DOCTYPE svg PUBLIC "-//W3C//DTD SVG 1.1//EN" "http://www.w3.org/Graphics/SVG/1.1/DTD/svg11.dtd" >
<!--
2013-9-30: Created.
-->
<svg>
<metadata>
Created by iconfont
</metadata>
<defs>

<font id="iconfont" horiz-adv-x="1024" >
  <font-face
    font-family="iconfont"
    font-weight="500"
    font-stretch="normal"
    units-per-em="1024"
    ascent="896"
    descent="-128"
  />
    <missing-glyph />
    
    <glyph glyph-name="sousuo" unicode="&#59011;" d="M946.1 17.7L761.6 203.1c50.2 65.9 80 148.2 80 237.5 0 215.9-174.1 390.9-388.8 390.9C238.1 831.6 64 656.6 64 440.7s174.1-390.9 388.8-390.9c91.7 0 176 32 242.5 85.4l183.8-184.9c9.3-9.3 21.4-13.9 33.5-13.9 12.1 0 24.2 4.6 33.5 13.9 18.5 18.7 18.5 48.8 0 67.4zM244.8 231.6c-55.6 55.8-86.2 130.1-86.2 209.1s30.6 153.3 86.2 209.1c55.6 55.8 129.4 86.6 208 86.6s152.4-30.7 207.9-86.6c55.6-55.8 86.2-130.1 86.2-209.1s-30.6-153.2-86.1-209.1c-55.6-55.8-129.5-86.6-208-86.6-78.6 0-152.4 30.8-208 86.6z"  horiz-adv-x="1024" />

    
    <glyph glyph-name="jiantoushang" unicode="&#58925;" d="M910.222222 99.555556c-17.066667 0-34.133333 5.688889-45.511111 17.066666L551.822222 486.4c-11.377778 5.688889-17.066667 11.377778-34.133333 11.377778-5.688889 0-22.755556-5.688889-28.444445-11.377778l-329.955555-364.088889c-22.755556-22.755556-56.888889-22.755556-79.644445-5.688889-22.755556 22.755556-22.755556 56.888889-5.688888 79.644445l329.955555 364.088889c28.444444 34.133333 73.955556 51.2 119.466667 51.2s85.333333-22.755556 119.466666-56.888889l312.888889-364.088889c22.755556-22.755556 17.066667-56.888889-5.688889-79.644445-11.377778-5.688889-28.444444-11.377778-39.822222-11.377777z"  horiz-adv-x="1024" />

    
    <glyph glyph-name="jiantouxia" unicode="&#58926;" d="M517.688889 99.555556c-45.511111 0-85.333333 17.066667-119.466667 51.2L73.955556 514.844444c-22.755556 22.755556-17.066667 56.888889 5.688888 79.644445 22.755556 22.755556 56.888889 17.066667 79.644445-5.688889l329.955555-364.088889c5.688889-5.688889 17.066667-11.377778 28.444445-11.377778s22.755556 5.688889 34.133333 17.066667l312.888889 364.088889c22.755556 22.755556 56.888889 28.444444 79.644445 5.688889 22.755556-22.755556 28.444444-56.888889 5.688888-79.644445L637.155556 156.444444c-28.444444-39.822222-68.266667-56.888889-119.466667-56.888888 5.688889 0 0 0 0 0z"  horiz-adv-x="1024" />

    
    <glyph glyph-name="bt_duigou_a" unicode="&#58895;" d="M413.21574402 145.21524810999995c-9.20714378 0-18.41428757 3.49699973-25.44304848 10.48481941L176.45951462 365.97581290999995c-14.05597687 13.98799897-14.05597687 36.65940285 0 50.64199448 14.05597687 13.98722648 36.82780266 13.98181915 50.88377952 0.00540733l185.87322236-184.95861053 382.50935554 380.62914848c14.05674935 13.98722648 36.82780266 13.98722648 50.88377953 0 14.05674935-13.98181915 14.05674935-36.65399551 0-50.641222L438.65802002 155.70547484999997c-7.02953339-6.99322701-16.23590469-10.49022675-25.44304849-10.49022675z"  horiz-adv-x="1024" />

    
    <glyph glyph-name="cunxuqiguanli" unicode="&#58880;" d="M511.3 732.7c47 0 92.6-9.2 135.4-27.3 41.4-17.5 78.7-42.6 110.6-74.6 32-32 57.1-69.2 74.6-110.6 18.1-42.8 27.3-88.4 27.3-135.4s-9.2-92.6-27.3-135.4c-17.5-41.4-42.6-78.7-74.6-110.6-32-32-69.2-57.1-110.6-74.6-42.8-18.1-88.4-27.3-135.4-27.3s-92.6 9.2-135.4 27.3c-41.4 17.5-78.7 42.6-110.6 74.6-32 32-57.1 69.2-74.6 110.6-18.1 42.8-27.3 88.4-27.3 135.4s9.2 92.6 27.3 135.4c17.5 41.4 42.6 78.7 74.6 110.6 32 32 69.2 57.1 110.6 74.6 42.8 18.1 88.4 27.3 135.4 27.3m0 100c-247.4 0-448-200.6-448-448s200.6-448 448-448 448 200.6 448 448-200.5 448-448 448zM703.3 334.7H463V618c0 27.6 22.4 50 50 50s50-22.4 50-50v-183.3h140.3c27.6 0 50-22.4 50-50s-22.4-50-50-50z"  horiz-adv-x="1024" />

    
    <glyph glyph-name="xiala" unicode="&#58881;" d="M513 254.2c-12.8 0-25.6 4.9-35.4 14.6L317.2 429.3c-19.5 19.5-19.5 51.2 0 70.7s51.2 19.5 70.7 0L513 374.9 638.1 500c19.5 19.5 51.2 19.5 70.7 0s19.5-51.2 0-70.7L548.4 268.8c-9.8-9.7-22.6-14.6-35.4-14.6z"  horiz-adv-x="1024" />

    
    <glyph glyph-name="xiangmugaikuo" unicode="&#58882;" d="M797.1 668v-600.2H228V668h569.1m88 100H140c-6.6 0-12-5.4-12-12v-776.2c0-6.6 5.4-12 12-12h745.1c6.6 0 12 5.4 12 12V756c0 6.6-5.4 12-12 12zM668.6 427.9H348.4c-27.6 0-50 22.4-50 50s22.4 50 50 50h320.2c27.6 0 50-22.4 50-50s-22.4-50-50-50zM669.4 208H349.2c-27.6 0-50 22.4-50 50s22.4 50 50 50h320.2c27.6 0 50-22.4 50-50s-22.4-50-50-50z"  horiz-adv-x="1024" />

    
    <glyph glyph-name="sanheng" unicode="&#58883;" d="M844.1 638.3H181.6c-28.8 0-52.1 22.4-52.1 50s23.3 50 52.1 50h662.5c28.8 0 52.1-22.4 52.1-50s-23.4-50-52.1-50zM844.1 31H181.6c-28.8 0-52.1 22.4-52.1 50s23.3 50 52.1 50h662.5c28.8 0 52.1-22.4 52.1-50s-23.4-50-52.1-50zM844.1 334.7H181.6c-28.8 0-52.1 22.4-52.1 50s23.3 50 52.1 50h662.5c28.8 0 52.1-22.4 52.1-50s-23.4-50-52.1-50z"  horiz-adv-x="1024" />

    
    <glyph glyph-name="tixing" unicode="&#58884;" d="M606.4 87.8c0-52.3-42.4-94.7-94.7-94.7S417 35.5 417 87.8M808 192.9l-100 0.7 2.1 277.4c0 52.3-20.6 101.6-57.9 139-37.4 37.4-86.8 58-139.2 58s-101.8-20.6-139.1-58c-37.4-37.4-57.9-86.8-57.9-139.1v-0.4l-2.1-277.6-100 0.7L216 471c0 39.9 7.9 78.7 23.5 115.3 15 35.3 36.5 67.1 63.7 94.4s59 48.7 94.4 63.7C434.2 760.1 473.1 768 513 768c40 0 78.8-7.9 115.5-23.5 35.3-15 67.1-36.5 94.4-63.7s48.7-59 63.7-94.4c15.6-36.7 23.5-75.5 23.5-115.5v-0.4L808 192.9zM844.6 114.2H178.9c-27.6 0-50 22.4-50 50s22.4 50 50 50h665.7c27.6 0 50-22.4 50-50s-22.4-50-50-50z"  horiz-adv-x="1024" />

    
    <glyph glyph-name="shezhi" unicode="&#58885;" d="M510.6-63.1c-38.4 0-74.5 15-101.5 42.1l-33 32.9c-8.9 8.9-21.1 14-33.5 14H295c-79.2 0-143.6 64.4-143.6 143.6v47.7c0 12.4-5 24.3-14 33.2l-33 33c-56 56.1-56 147.2 0 203.1l32.9 32.9c9.1 9 14 20.8 14 33.5v47.5c0 79.2 64.4 143.6 143.6 143.6h47.7c12.5 0 24.2 5 33.2 13.9l33 33.1c56 55.9 147.1 56 203.1 0l32-32c9-9 20.8-14 33.5-14H725c79.2 0 143.6-64.4 143.6-143.6v-47.7c0-12.4 5-24.3 14-33.2l34.2-34.2c55.9-57.2 55.4-147.4-0.2-202.9l-32.9-32.9c-9-9-14-20.8-14-33.4v-47.5c0-79.2-64.4-143.6-143.6-143.6h-47.7c-12.2 0-24.4-5.1-33.2-14l-32.9-33c-27.4-27.2-63.4-42.1-101.7-42.1z m336.8 482.6l-32.9 32.9c-27.1 26.9-42.1 62.8-42.2 101.1v47.9c0 26.1-21.2 47.3-47.3 47.3h-47.7c-38.5 0.1-74.4 15.2-101.4 42.4L544 723c-18.5 18.5-48.5 18.5-67 0l-32.9-33c-26.9-27.1-62.8-42.1-101.1-42.2h-47.9c-26.1 0-47.3-21.2-47.3-47.3v-47.7c-0.1-38.5-15.2-74.5-42.4-101.5l-32.8-32.8c-18.5-18.5-18.5-48.5 0-67l32.9-33c27.1-26.9 42.1-62.8 42.2-101.1v-47.9c0-26.1 21.2-47.3 47.3-47.3h47.7c38.4-0.1 74.4-15.2 101.4-42.3l32.8-32.8c18.4-18.5 48.4-18.5 67 0l32.9 33c27 27.1 62.9 42.1 101.2 42.2h47.9c26.1 0 47.3 21.2 47.3 47.3v47.7c0.1 38.4 15.2 74.3 42.3 101.4l32.9 32.9c18.5 18.4 18.5 48.5 0 66.9M510.6 193c-105.8 0-191.9 86.1-191.9 191.9s86.1 191.9 191.9 191.9 191.9-86 191.9-191.9S616.4 193 510.6 193z m0 289.4c-53.7 0-97.4-43.7-97.4-97.4s43.7-97.4 97.4-97.4S608 331.3 608 385s-43.7 97.4-97.4 97.4z"  horiz-adv-x="1024" />

    
    <glyph glyph-name="zichanchi" unicode="&#58886;" d="M796.1 400c-0.4-2-2.2-6.4-7.5-12.7-10.6-12.7-29.1-26.2-52-37.9-59-30-142.9-47.3-230.3-47.3S335 319.3 276 349.4c-22.9 11.7-41.4 25.1-52 37.9-5.3 6.4-7.1 10.8-7.5 12.7h-100c0.7-109.4 175-197.9 389.8-197.9S895.5 290.6 896.2 400H796.1zM896.2 626.2v1.9c-2 108.8-175.8 196.7-389.9 196.7s-387.9-87.9-389.8-196.7v-500c3.1-108.3 176.4-195.6 389.8-195.6S893 19.8 896.1 128.1V625.6c0.1 0.2 0.1 0.4 0.1 0.6zM276 677.5c59 30 142.9 47.3 230.3 47.3s171.3-17.2 230.3-47.3c22.9-11.7 41.4-25.1 52-37.9 5.8-7 7.5-11.7 7.6-13.3v-0.3c-0.1-1.6-1.7-6.2-7.6-13.3-10.6-12.7-29.1-26.2-52-37.9-59-30-142.9-47.3-230.3-47.3S335 544.9 276 574.9c-22.9 11.7-41.4 25.1-52 37.9-5.8 7-7.5 11.7-7.6 13.3v0.3c0.1 1.6 1.7 6.2 7.6 13.3 10.6 12.7 29.1 26.1 52 37.8z m520.1-547.1c-0.4-2-2.2-6.4-7.5-12.7-10.6-12.7-29.1-26.2-52-37.9-59-30-142.9-47.3-230.3-47.3S335 49.8 276 79.8c-22.9 11.7-41.4 25.1-52 37.9-5.3 6.4-7.1 10.8-7.5 12.7h-0.1v363c71.4-40.4 174.8-65.8 289.8-65.8S724.7 453 796 493.4l0.1-363z"  horiz-adv-x="1024" />

    
    <glyph glyph-name="zichanbao" unicode="&#58887;" d="M128.7 531.4H888v-100H128.7zM335 232.5H128.7c-27.6 0-50 22.4-50 50s22.4 50 50 50H335c27.6 0 50-22.4 50-50s-22.4-50-50-50zM859.6 605.5v-439.9H164.4V605.5h695.2m88 100H76.4c-6.6 0-12-5.4-12-12v-615.9c0-6.6 5.4-12 12-12h871.1c6.6 0 12 5.4 12 12V693.5c0.1 6.6-5.3 12-11.9 12z"  horiz-adv-x="1024" />

    
    <glyph glyph-name="caiwuguanli" unicode="&#58888;" d="M511.8 733.8c47.1 0 92.7-9.2 135.6-27.3 41.5-17.5 78.8-42.7 110.8-74.7s57.2-69.3 74.7-110.8c18.1-42.9 27.3-88.5 27.3-135.6s-9.2-92.7-27.3-135.6c-17.5-41.5-42.7-78.8-74.7-110.8s-69.3-57.2-110.8-74.7c-42.9-18.1-88.5-27.3-135.6-27.3s-92.7 9.2-135.6 27.3c-41.5 17.5-78.8 42.7-110.8 74.7s-57.2 69.3-74.7 110.8c-18.1 42.9-27.3 88.5-27.3 135.6s9.2 92.7 27.3 135.6c17.5 41.5 42.7 78.8 74.7 110.8s69.3 57.2 110.8 74.7c42.9 18.1 88.5 27.3 135.6 27.3m0 100C264.1 833.8 63.3 633 63.3 385.3s200.8-448.5 448.5-448.5 448.5 200.8 448.5 448.5S759.5 833.8 511.8 833.8zM654.1 352.5h-92.3V382h92.3c27.6 0 50 22.4 50 50s-22.4 50-50 50H588l68.1 68.1c19.5 19.5 19.5 51.2 0 70.7s-51.2 19.5-70.7 0l-71.3-71.3-71.3 71.3c-19.5 19.5-51.2 19.5-70.7 0s-19.5-51.2 0-70.7l68.1-68.1h-70.8c-27.6 0-50-22.4-50-50s22.4-50 50-50h92.3v-29.5h-92.3c-27.6 0-50-22.4-50-50s22.4-50 50-50h92.3V173c0-27.6 22.4-50 50-50s50 22.4 50 50v79.4H654c27.6 0 50 22.4 50 50s-22.2 50.1-49.9 50.1z"  horiz-adv-x="1024" />

    
    <glyph glyph-name="chanpinsheji" unicode="&#58889;" d="M415.8 532H268.7c-27.6 0-50 22.4-50 50s22.4 50 50 50h147.1c27.6 0 50-22.4 50-50s-22.4-50-50-50zM415.8 136.2H268.7c-27.6 0-50 22.4-50 50s22.4 50 50 50h147.1c27.6 0 50-22.4 50-50s-22.4-50-50-50zM508.5 334.1H268.7c-27.6 0-50 22.4-50 50s22.4 50 50 50h239.8c27.6 0 50-22.4 50-50s-22.4-50-50-50zM732.2 731.8v-695.3H292V731.8h440.2m88 100H204c-6.6 0-12-5.4-12-12v-871.3c0-6.6 5.4-12 12-12h616.1c6.6 0 12 5.4 12 12V819.8c0.1 6.6-5.3 12-11.9 12z"  horiz-adv-x="1024" />

    
    <glyph glyph-name="gerendai" unicode="&#58890;" d="M803.4 15H187.2l28.3 546h567.9zM826.1 34H155.4l19.3 130h651.4zM764.1 538.9l34.1-505H195.9l34.1 505h534.1m48.1 64H181.9c-6.8 0-12.4-4.5-12.4-9.9l-41.4-613.1c0-5.5 5.6-9.9 12.4-9.9h713.1c6.8 0 12.4 4.5 12.4 9.9L824.6 593c0 5.4-5.6 9.9-12.4 9.9zM686.2 426.9h-32V619.5c0 36-16.7 72.5-45.9 100.3-30.4 29-70 45-111.3 45s-80.8-16-111.3-45c-29.2-27.8-45.9-64.4-45.9-100.3v-192.6h-32V619.5c0 44.7 20.4 89.7 55.8 123.5 36.4 34.7 83.8 53.8 133.3 53.8 49.6 0 96.9-19.1 133.4-53.8 35.5-33.8 55.8-78.8 55.8-123.5v-192.6zM323.8 439.1m-32 0a32 32 0 1 1 64 0 32 32 0 1 1-64 0ZM670.2 439.1m-32 0a32 32 0 1 1 64 0 32 32 0 1 1-64 0Z"  horiz-adv-x="1024" />

    
    <glyph glyph-name="chedai" unicode="&#58891;" d="M267.6 680.1c10.1 0 297 44.8 430.1 13.3 142.2-33.7 130.8-143.7 130.8-143.7l82.1-95.8 31.8-117.6-0.1-135-31.6-44.3S482.3 134.5 479 136.4c-3.2 2-324.1 26.4-327.8 26.4-3.7 0-43.6 14-43.6 14L83.1 294.4l7.1 122.2 177.4 263.5zM806 544.6H231.5c-6.6 0-12 5.4-12 12v59.8c0 6.6 5.4 12 12 12H806c6.6 0 12-5.4 12-12v-59.8c0-6.6-5.4-12-12-12zM284.6 194.8a227.6 59 0 1 1 455.2 0 227.6 59 0 1 1-455.2 0ZM957.9 383.6c-0.8 47-25.3 83.1-58.9 114-6.4 5.8-12 12.4-19.7 20.9-2 2.2-0.4 5.7 2.6 5.6 11.8-0.4 22-1.2 31.7 0.7 9.3 1.8 24.2 8.1 24.8 13.6 1.2 11.5-1.9 27.3-9.5 35-18.1 18.2-52.4 16.2-73.8-1.2-1.7-1.3-4.1-0.9-5.1 1-6.7 12.6-13.6 24.9-19.5 37.6-29.3 62.8-72.7 99.1-147.5 100.9-56.5 1.4-112.9 2.6-169.3 2.6h-2.4c-56.4 0-112.8-1.2-169.3-2.6-74.9-1.8-118.3-38.1-147.5-100.9-5.9-12.7-12.9-25-19.5-37.6-1-1.9-3.4-2.4-5.1-1-21.4 17.4-55.7 19.4-73.8 1.2-7.7-7.7-10.8-23.6-9.5-35 0.6-5.5 15.5-11.8 24.8-13.6 9.7-1.9 19.9-1.1 31.7-0.7 3 0.1 4.6-3.4 2.6-5.6-7.6-8.4-13.3-15-19.7-20.9-33.6-30.9-58.1-67-58.9-114-1.9-103.7-2.8-184.1-3-287.7 0-23 18.1-38.2 42.6-38.9 27.7-0.8 55.4-0.8 83.1 0 27.5 0.8 43.2 17.1 44.2 44.3 0.3 8.6 0.1 17.2 0.1 26.5 0 2 1.7 3.5 3.6 3.4 91.7-7 182.8-10.4 273.7-10.4h2.4c90.9 0 182 3.4 273.7 10.4 2 0.1 3.6-1.4 3.6-3.4-0.1-9.3-0.3-17.9 0.1-26.5 1-27.3 16.7-43.6 44.2-44.3 27.7-0.8 55.4-0.8 83.1 0 24.5 0.7 42.7 15.9 42.6 38.9-0.4 103.7-1.4 184-3.2 287.7zM223.2 573c1.5 3.4 2.7 6.1 4.1 8.6 54.4 98.2 51.5 82.9 140.2 85.9 47.8 1.6 95.7 1.5 143.6 0.9h2.4c47.9 0.7 95.8 0.8 143.6-0.9 88.7-3 85.8 12.3 140.2-85.9 1.4-2.6 2.6-5.2 4.1-8.6 1-2.2-0.6-4.7-3.1-4.7H226.2c-2.4-0.1-4 2.4-3 4.7z m492.2-403.7c-68.1-3.8-135.5-5.8-203-5.8s-134.9 2-203 5.8c-2.7 0.1-4.1 3.2-2.5 5.4 23.4 31.6 44.7 53.3 89.5 53.7 39.4 0.4 77.3 0.2 114.8 0h2.4c37.5 0.2 75.4 0.3 114.8 0 44.8-0.4 66.1-22 89.5-53.7 1.5-2.2 0.1-5.2-2.5-5.4z m189 35.9c-1-7.6-13.9-17.1-23-19.6-17.6-4.8-36.7-4-54.7-7.8-33.1-6.9-60.8-2.8-79.6 29.5-6.3 10.9-16.7 19.3-24.8 29.1-19.4 23.5-44.2 33.9-74.7 33.7a30521.707 30521.707 0 0 0-270.8 0c-30.5 0.2-55.3-10.2-74.7-33.7-8.1-9.9-18.5-18.3-24.8-29.1-18.7-32.3-46.4-36.4-79.6-29.5-18 3.7-37 3-54.7 7.8-9.1 2.5-22.1 12-23 19.6-8.6 67.4-20.7 111.6-10.3 180 1.1 7.5 3.4 14.9 5.2 22.3-2.4-20.2 10.3-25.3 25.8-26.8 26.1-2.4 75.8-7 101.7-5 13.1 1 46.7 30.9 40.3 35.2-37.5 25.2-104.9 22.7-146.1 35.1 8.5 9 16.1 17 23.7 25 8.3 8.8 19.8 16.2 24.1 26.6 10.5 25.2 28.8 26.8 52.4 26.6 91.4-0.4 182.7-0.6 274.1-0.6h2.4c91.4 0 182.7 0.2 274.1 0.6 23.6 0.1 42-1.5 52.4-26.6 4.3-10.4 15.8-17.8 24.1-26.6 7.6-8 15.1-16 23.7-25-41.2-12.4-108.6-9.9-146.1-35.1-6.4-4.3 27.2-34.2 40.3-35.2 25.9-2 75.6 2.6 101.7 5 15.5 1.4 28.2 6.6 25.8 26.8 1.8-7.4 4-14.8 5.2-22.3 10.6-68.4-1.5-112.5-10.1-180z"  horiz-adv-x="1024" />

    
    <glyph glyph-name="zengjia" unicode="&#58892;" d="M513.3-31.7c-17.7 0-32 14.3-32 32v766c0 17.7 14.3 32 32 32s32-14.3 32-32v-766c0-17.7-14.3-32-32-32zM896.3 351.3h-766c-17.7 0-32 14.3-32 32s14.3 32 32 32h766c17.7 0 32-14.3 32-32s-14.3-32-32-32z"  horiz-adv-x="1024" />

    
    <glyph glyph-name="suoyouxiangmu" unicode="&#58893;" d="M170.1 725.9h256v-256h-256zM394.1 693.9v-192h-192v192h192m52 64h-296c-6.6 0-12-5.4-12-12v-296c0-6.6 5.4-12 12-12h296c6.6 0 12 5.4 12 12v296c0 6.6-5.4 12-12 12zM598.1 725.9h256v-256h-256zM822.1 693.9v-192h-192v192h192m52 64h-296c-6.6 0-12-5.4-12-12v-296c0-6.6 5.4-12 12-12h296c6.6 0 12 5.4 12 12v296c0 6.6-5.4 12-12 12zM170.1 298.9h256v-256h-256zM394.1 266.9v-192h-192v192h192m52 64h-296c-6.6 0-12-5.4-12-12v-296c0-6.6 5.4-12 12-12h296c6.6 0 12 5.4 12 12v296c0 6.6-5.4 12-12 12zM598.1 298.9h256v-256h-256zM822.1 266.9v-192h-192v192h192m52 64h-296c-6.6 0-12-5.4-12-12v-296c0-6.6 5.4-12 12-12h296c6.6 0 12 5.4 12 12v296c0 6.6-5.4 12-12 12z"  horiz-adv-x="1024" />

    
    <glyph glyph-name="fangdai" unicode="&#58894;" d="M275.6 749.2h427.8v-720.4H275.6zM615.5 749.2h175.8v-720.4H615.5zM742.5 730.9v-669.5H294.9V730.9h447.6m52 64H242.9c-6.6 0-12-5.4-12-12v-773.5c0-6.6 5.4-12 12-12h551.6c6.6 0 12 5.4 12 12V782.9c0 6.6-5.4 12-12 12zM854-3.2H183c-17.7 0-32 14.3-32 32s14.3 32 32 32h671c17.7 0 32-14.3 32-32s-14.3-32-32-32zM367.8 640.4h96v-96h-96zM367.8 454.3h96v-96h-96zM367.8 268.2h96v-96h-96z"  horiz-adv-x="1024" />

    
    <glyph glyph-name="mimadenglu-" unicode="&#58897;" d="M830.2-32.3H165.8c-37.3 0-67.6 30.3-67.6 67.5V423.7c0 37.3 30.3 67.6 67.6 67.6h664.4c37.3 0 67.6-30.3 67.6-67.6v-388.5c0-37.2-30.3-67.5-67.6-67.5z m-641.8 90.1h619.3V401.2H188.4v-343.4zM784.1 418.9H694v92.2c0 108.1-87.9 196-196 196s-196-87.9-196-196v-92.2h-90.1v92.2c0 157.7 128.3 286.1 286.1 286.1s286.1-128.3 286.1-286.1v-92.2zM572.7 257.5c0 41.1-33.6 74.7-74.7 74.7s-74.7-33.6-74.7-74.7c0-27.4 15.2-51.3 37.3-64.2v-29.1c0-20.5 16.8-37.3 37.3-37.3 20.5 0 37.3 16.8 37.3 37.3v29.1c22.4 12.9 37.5 36.8 37.5 64.2z"  horiz-adv-x="1024" />

    
    <glyph glyph-name="tishi-" unicode="&#58898;" d="M512.9 387.1m-319.2 0a319.2 319.2 0 1 1 638.4 0 319.2 319.2 0 1 1-638.4 0ZM512.9 232.6m-45 0a45 45 0 1 1 90 0 45 45 0 1 1-90 0ZM512.9 586.6c-24.8 0-45-20.2-45-45V353c0-24.8 20.2-45 45-45s45 20.2 45 45V541.6c0 24.7-20.2 45-45 45z"  horiz-adv-x="1024" />

    
    <glyph glyph-name="shanchu-" unicode="&#58899;" d="M512.9 387.1m-319.2 0a319.2 319.2 0 1 1 638.4 0 319.2 319.2 0 1 1-638.4 0ZM576.6 387.1l59.6 59.6c17.6 17.6 17.6 46.1 0 63.6-17.6 17.6-46.1 17.6-63.6 0L513 450.7l-59.6 59.6c-17.6 17.6-46.1 17.6-63.6 0-17.6-17.6-17.6-46.1 0-63.6l59.6-59.6-59.6-59.6c-17.6-17.6-17.6-46.1 0-63.6 8.8-8.8 20.3-13.2 31.8-13.2s23 4.4 31.8 13.2l59.6 59.6 59.6-59.6c8.8-8.8 20.3-13.2 31.8-13.2s23 4.4 31.8 13.2c17.6 17.6 17.6 46.1 0 63.6l-59.6 59.6z"  horiz-adv-x="1024" />

    
    <glyph glyph-name="xiugaimima-" unicode="&#58900;" d="M512.9 387.1m-319.2 0a319.2 319.2 0 1 1 638.4 0 319.2 319.2 0 1 1-638.4 0ZM602.9 435.1c0 49.7-40.3 90-90 90s-90-40.3-90-90c0-33.3 18.1-62.4 45-78V294c0-24.9 20.1-45 45-45s45 20.1 45 45v63.1c26.9 15.6 45 44.7 45 78z"  horiz-adv-x="1024" />

    
    <glyph glyph-name="youxiangzhanghao-" unicode="&#58902;" d="M858.5 64.3H134.1c-37.3 0-67.6 30.3-67.6 67.5V660.3c0 37.3 30.3 67.6 67.6 67.6h724.4c37.3 0 67.6-30.3 67.6-67.6v-528.5c0-37.2-30.3-67.5-67.6-67.5z m-701.8 90.1H836V637.8H156.7v-483.4zM503 283.3c-9.5 0-19 3-27 9L276.2 442.1c-19.9 14.9-23.9 43.1-9 63 14.9 19.9 43.1 23.9 63 9L503 384.5l172.8 129.6c19.9 14.9 48.1 10.9 63-9 14.9-19.9 10.9-48.1-9-63L529.9 292.3c-8-6-17.5-9-26.9-9z"  horiz-adv-x="1024" />

    
    <glyph glyph-name="zhengque-" unicode="&#58903;" d="M512.9 387.1m-319.2 0a319.2 319.2 0 1 1 638.4 0 319.2 319.2 0 1 1-638.4 0ZM471 246.2c-11.9 0-23.4 4.7-31.8 13.2l-108 108c-17.6 17.6-17.6 46.1 0 63.6 17.6 17.6 46.1 17.6 63.6 0l76.1-76.1 160 160c17.6 17.6 46.1 17.6 63.6 0 17.6-17.6 17.6-46.1 0-63.6l-191.7-192c-8.4-8.4-19.9-13.1-31.8-13.1z"  horiz-adv-x="1024" />

    
    <glyph glyph-name="warning" unicode="&#58896;" d="M476.672 24.576c-28.16 13.824-38.912 32.768-38.912 67.072 0.512 48.64 25.088 74.24 71.168 74.24 36.352 0 57.856-12.8 70.656-41.472 23.552-53.76-10.752-109.056-67.584-109.056-9.728 0-25.6 4.096-35.328 9.216zM485.888 242.176c-4.608 3.584-10.752 11.264-13.824 17.408-9.216 17.408-37.888 414.72-31.744 437.76 18.944 67.584 114.176 73.728 140.288 9.216 7.68-18.944 7.168-33.792-7.168-228.352-8.704-114.176-17.92-211.968-20.48-217.088-12.288-23.04-48.64-33.28-67.072-18.944z"  horiz-adv-x="1024" />

    
    <glyph glyph-name="xiazai" unicode="&#58901;" d="M531.456 121.856l281.6 281.6h-237.056V768h-128v-364.544H210.944l281.6-281.6c6.656-13.312 32.256-13.312 38.912 0zM210.944 31.744h601.6v-31.744H211.456s0 31.744-0.512 31.744z"  horiz-adv-x="1024" />

    


  </font>
</defs>
</svg>
